<svg width="19" height="18" viewBox="0 0 19 18" fill="none" xmlns="http://www.w3.org/2000/svg">
<path fill-rule="evenodd" clip-rule="evenodd" d="M9.72485 2.25C5.99693 2.25 2.97485 5.27208 2.97485 9C2.97485 12.7279 5.99693 15.75 9.72485 15.75C13.4528 15.75 16.4749 12.7279 16.4749 9C16.4749 5.27208 13.4528 2.25 9.72485 2.25ZM1.47485 9C1.47485 4.44365 5.1685 0.75 9.72485 0.75C14.2812 0.75 17.9749 4.44365 17.9749 9C17.9749 13.5563 14.2812 17.25 9.72485 17.25C5.1685 17.25 1.47485 13.5563 1.47485 9Z" fill="white"/>
<path fill-rule="evenodd" clip-rule="evenodd" d="M9.72485 3.75C10.1391 3.75 10.4749 4.08579 10.4749 4.5V8.53647L13.0603 9.82918C13.4307 10.0144 13.5809 10.4649 13.3957 10.8354C13.2104 11.2059 12.7599 11.3561 12.3894 11.1708L9.38944 9.67082C9.13536 9.54378 8.97485 9.28408 8.97485 9V4.5C8.97485 4.08579 9.31064 3.75 9.72485 3.75Z" fill="white"/>
</svg>
