<svg width="14" height="14" viewBox="0 0 14 14" fill="none" xmlns="http://www.w3.org/2000/svg">
<path d="M2.33337 8.75008C2.33337 8.75008 2.91671 8.16675 4.66671 8.16675C6.41671 8.16675 7.58337 9.33342 9.33337 9.33342C11.0834 9.33342 11.6667 8.75008 11.6667 8.75008V1.75008C11.6667 1.75008 11.0834 2.33341 9.33337 2.33341C7.58337 2.33341 6.41671 1.16675 4.66671 1.16675C2.91671 1.16675 2.33337 1.75008 2.33337 1.75008V8.75008Z" fill="#212121"/>
<path fill-rule="evenodd" clip-rule="evenodd" d="M2.91667 1.45825C3.23883 1.45825 2.91667 2.01109 2.91667 2.33325L2.91667 12.8333C2.91667 13.1554 2.6555 13.4166 2.33333 13.4166C2.01117 13.4166 1.75 13.1554 1.75 12.8333L1.75 2.33325C1.75 2.01109 2.5945 1.45825 2.91667 1.45825Z" fill="#212121"/>
</svg>
