<svg width="20" height="20" viewBox="0 0 20 20" fill="none" xmlns="http://www.w3.org/2000/svg">
<path fill-rule="evenodd" clip-rule="evenodd" d="M5.87462 2.54204C6.96859 1.44808 8.45232 0.833496 9.99941 0.833496C11.5465 0.833496 13.0302 1.44808 14.1242 2.54204C15.2182 3.636 15.8327 5.11973 15.8327 6.66683C15.8327 9.46071 16.4303 11.1957 16.981 12.2053C17.2575 12.7122 17.5267 13.0447 17.7138 13.2421C17.8075 13.3411 17.8811 13.4067 17.9255 13.4436C17.9477 13.4621 17.9625 13.4735 17.969 13.4782C17.97 13.479 17.9708 13.4796 17.9713 13.48C18.2701 13.6852 18.4023 14.0606 18.297 14.4083C18.1906 14.7598 17.8666 15.0002 17.4994 15.0002H2.49941C2.13219 15.0002 1.80825 14.7598 1.70184 14.4083C1.59655 14.0606 1.72875 13.6852 2.02749 13.48C2.02807 13.4796 2.02887 13.479 2.02987 13.4782C2.03629 13.4735 2.05116 13.4621 2.07335 13.4436C2.1177 13.4067 2.19135 13.3411 2.28508 13.2421C2.4721 13.0447 2.74134 12.7122 3.01783 12.2053C3.56852 11.1957 4.16608 9.46071 4.16608 6.66683C4.16608 5.11973 4.78066 3.636 5.87462 2.54204ZM2.03591 13.4743C2.03598 13.4742 2.03604 13.4742 2.03611 13.4742C2.03611 13.4742 2.0361 13.4742 2.0361 13.4742L2.03591 13.4743ZM4.29052 13.3335H15.7083C15.6449 13.2296 15.5813 13.1196 15.5178 13.0034C14.8185 11.7213 14.1661 9.70628 14.1661 6.66683C14.1661 5.56176 13.7271 4.50195 12.9457 3.72055C12.1643 2.93915 11.1045 2.50016 9.99941 2.50016C8.89435 2.50016 7.83454 2.93915 7.05314 3.72055C6.27173 4.50195 5.83275 5.56176 5.83275 6.66683C5.83275 9.70628 5.1803 11.7213 4.48099 13.0034C4.41758 13.1196 4.35392 13.2296 4.29052 13.3335Z" fill="#212121"/>
<path fill-rule="evenodd" clip-rule="evenodd" d="M8.13994 16.7791C8.53804 16.5482 9.04798 16.6837 9.27891 17.0818C9.35217 17.2081 9.45731 17.3129 9.58382 17.3858C9.71033 17.4587 9.85375 17.497 9.99975 17.497C10.1457 17.497 10.2892 17.4587 10.4157 17.3858C10.5422 17.3129 10.6473 17.2081 10.7206 17.0818C10.9515 16.6837 11.4615 16.5482 11.8596 16.7791C12.2577 17.0101 12.3932 17.52 12.1622 17.9181C11.9425 18.297 11.6271 18.6114 11.2475 18.83C10.868 19.0486 10.4377 19.1637 9.99975 19.1637C9.56177 19.1637 9.13148 19.0486 8.75196 18.83C8.37244 18.6114 8.05701 18.297 7.83725 17.9181C7.60631 17.52 7.74183 17.0101 8.13994 16.7791Z" fill="#212121"/>
</svg>
